# xmcd CD database file
#
# Track frame offsets:
#	183
#	13003
#	25740
#	39615
#	52653
#	66273
#	80725
#	95323
#	109268
#	123400
#	136673
#	150138
#	162423
#	175375
#	188818
#	200078
#	211198
#	222860
#	233868
#	244908
#	255605
#	266935
#	278088
#	289008
#
# Disc length: 3997 seconds
#
# Revision: 0
# Processed by: cddbd v1.5.2PL0 Copyright (c) Steve Scherf et al.
# Submitted via: CDex 1.99.1
#
DISCID=560f9b18
DTITLE=Jack Kelly and His South Memphis Jug Band - Complete Recorded Works (1933 - 1939)
DYEAR=1900
DGENRE=Blues
TTITLE0=Highway No. 61 Blues
TTITLE1=Highway No. 61 Blues No.2
TTITLE2=Red Ripe Tomatoes
TTITLE3=I believe I'll Go Back Home
TTITLE4=Country Woman (Will Batts Vcl)
TTITLE5=Cheatin' Woman (Will Batts Vcl)
TTITLE6=Ko-Ko-Mo Blues
TTITLE7=Cold Iron Bed
TTITLE8=R. F. C. Blues
TTITLE9=Policy Rag
TTITLE10=President Blues
TTITLE11=Highway No. 61 Blues (Will Batts Vcl)
TTITLE12=Cadillac Baby (Will Batts Vcl)
TTITLE13=Doctor Medicine
TTITLE14=Lightenin' Blues
TTITLE15=Betty Sue Blues
TTITLE16=Flower Blues
TTITLE17=Joe Louis Special
TTITLE18=High Behind Blues
TTITLE19=You Done Done It
TTITLE20=Diamond Buyer Blues
TTITLE21=World Wandering Blues
TTITLE22=Neck Bone Blues
TTITLE23=Men Fooler Blues
EXTD=
EXTT0=
EXTT1=
EXTT2=
EXTT3=
EXTT4=
EXTT5=
EXTT6=
EXTT7=
EXTT8=
EXTT9=
EXTT10=
EXTT11=
EXTT12=
EXTT13=
EXTT14=
EXTT15=
EXTT16=
EXTT17=
EXTT18=
EXTT19=
EXTT20=
EXTT21=
EXTT22=
EXTT23=
PLAYORDER=
